<svg width="32" height="32" viewBox="0 0 32 32" fill="none" xmlns="http://www.w3.org/2000/svg">
<path d="M30.4001 0H1.59992C1.17559 0 0.768649 0.168562 0.468606 0.468606C0.168563 0.768649 0 1.17559 0 1.59992V30.4001C0 30.8244 0.168563 31.2314 0.468606 31.5314C0.768649 31.8314 1.17559 32 1.59992 32H30.4001C30.8244 32 31.2313 31.8314 31.5314 31.5314C31.8314 31.2314 32 30.8244 32 30.4001V1.59992C32 1.17559 31.8314 0.768649 31.5314 0.468606C31.2313 0.168562 30.8244 0 30.4001 0ZM27.0322 9.34353H24.474C22.4693 9.34353 22.0821 10.2971 22.0821 11.6954V14.7769H26.8643L26.2403 19.607H22.0805V31.9984H17.0951V19.607H12.9242V14.7769H17.0951V11.2154C17.0106 10.3711 17.1117 9.51845 17.3914 8.7173C17.6711 7.91615 18.1227 7.18587 18.7144 6.57766C19.3062 5.96945 20.0238 5.49803 20.817 5.19643C21.6101 4.89483 22.4597 4.77037 23.306 4.83176C24.5507 4.82669 25.7947 4.89078 27.0322 5.02375V9.34353Z" fill="white"/>
</svg>
