<svg width="25" height="24" viewBox="0 0 25 24" fill="none" xmlns="http://www.w3.org/2000/svg">
<path fill-rule="evenodd" clip-rule="evenodd" d="M12.1667 22.3333C13.5674 22.3333 14.9545 22.0574 16.2486 21.5214C17.5428 20.9853 18.7186 20.1996 19.7091 19.2091C20.6996 18.2186 21.4853 17.0428 22.0214 15.7486C22.5574 14.4545 22.8333 13.0674 22.8333 11.6667C22.8333 10.2659 22.5574 8.87885 22.0214 7.58471C21.4853 6.29057 20.6996 5.11469 19.7091 4.12419C18.7186 3.1337 17.5428 2.348 16.2486 1.81195C14.9545 1.2759 13.5674 1 12.1667 1C9.33769 1 6.62458 2.12381 4.62419 4.12419C2.62381 6.12458 1.5 8.83769 1.5 11.6667C1.5 14.4956 2.62381 17.2087 4.62419 19.2091C6.62458 21.2095 9.33769 22.3333 12.1667 22.3333ZM11.8917 15.9807L17.8176 8.86963L15.9972 7.35259L10.9009 13.467L8.26385 10.8287L6.588 12.5046L10.1436 16.0601L11.0609 16.9775L11.8917 15.9807Z" fill="white"/>
</svg>
