<svg width="24" height="22" viewBox="0 0 24 22" fill="none" xmlns="http://www.w3.org/2000/svg">
<path d="M2.42012 11.7132C2.28394 11.4975 2.21584 11.3897 2.17772 11.2234C2.14909 11.0985 2.14909 10.9015 2.17772 10.7766C2.21584 10.6103 2.28394 10.5025 2.42012 10.2868C3.54553 8.50484 6.8954 4 12.0004 4C17.1054 4 20.4553 8.50484 21.5807 10.2868C21.7169 10.5025 21.785 10.6103 21.8231 10.7766C21.8517 10.9015 21.8517 11.0985 21.8231 11.2234C21.785 11.3897 21.7169 11.4975 21.5807 11.7132C20.4553 13.4952 17.1054 18 12.0004 18C6.8954 18 3.54553 13.4952 2.42012 11.7132Z" stroke="#ADADAD" stroke-linecap="round" stroke-linejoin="round"/>
<path d="M12.0004 14C13.6573 14 15.0004 12.6569 15.0004 11C15.0004 9.34315 13.6573 8 12.0004 8C10.3435 8 9.0004 9.34315 9.0004 11C9.0004 12.6569 10.3435 14 12.0004 14Z" stroke="#ADADAD" stroke-linecap="round" stroke-linejoin="round"/>
</svg>
