<svg width="24" height="22" viewBox="0 0 24 22" fill="none" xmlns="http://www.w3.org/2000/svg">
<path d="M10.5867 4.09232C10.9931 4.03223 11.4124 4 11.8442 4C16.9492 4 20.299 8.50484 21.4244 10.2868C21.5607 10.5025 21.6288 10.6103 21.6669 10.7767C21.6955 10.9016 21.6955 11.0987 21.6668 11.2236C21.6287 11.3899 21.5601 11.4985 21.4229 11.7156C21.1231 12.1901 20.6659 12.8571 20.0602 13.5805M6.56807 5.71504C4.406 7.1817 2.9382 9.21938 2.26486 10.2853C2.12803 10.5019 2.05962 10.6102 2.02149 10.7765C1.99285 10.9014 1.99284 11.0984 2.02146 11.2234C2.05958 11.3897 2.12768 11.4975 2.26388 11.7132C3.38929 13.4952 6.73916 18 11.8442 18C13.9026 18 15.6756 17.2676 17.1326 16.2766M2.84417 2L20.8442 20M9.72285 8.87868C9.17995 9.42157 8.84417 10.1716 8.84417 11C8.84417 12.6569 10.1873 14 11.8442 14C12.6726 14 13.4226 13.6642 13.9655 13.1213" stroke="#ADADAD" stroke-linecap="round" stroke-linejoin="round"/>
</svg>
