<svg width="24" height="24" viewBox="0 0 24 24" fill="none" xmlns="http://www.w3.org/2000/svg">
<path fill-rule="evenodd" clip-rule="evenodd" d="M11.6667 22.3333C13.0674 22.3333 14.4545 22.0574 15.7486 21.5214C17.0428 20.9853 18.2186 20.1996 19.2091 19.2091C20.1996 18.2186 20.9853 17.0428 21.5214 15.7486C22.0574 14.4545 22.3333 13.0674 22.3333 11.6667C22.3333 10.2659 22.0574 8.87885 21.5214 7.58471C20.9853 6.29057 20.1996 5.11469 19.2091 4.12419C18.2186 3.1337 17.0428 2.348 15.7486 1.81195C14.4545 1.2759 13.0674 1 11.6667 1C8.83769 1 6.12458 2.12381 4.12419 4.12419C2.12381 6.12458 1 8.83769 1 11.6667C1 14.4956 2.12381 17.2087 4.12419 19.2091C6.12458 21.2095 8.83769 22.3333 11.6667 22.3333ZM11.3917 15.9807L17.3176 8.86963L15.4972 7.35259L10.4009 13.467L7.76385 10.8287L6.088 12.5046L9.64356 16.0601L10.5609 16.9775L11.3917 15.9807Z" fill="url(#paint0_linear_821_1726)"/>
<defs>
<linearGradient id="paint0_linear_821_1726" x1="11.6667" y1="1" x2="11.6667" y2="22.3333" gradientUnits="userSpaceOnUse">
<stop stop-color="#CB131B"/>
<stop offset="1" stop-color="#FFC000"/>
</linearGradient>
</defs>
</svg>
